<?xml version="1.0" encoding="UTF-8"?>
<svg id="Layer_1" xmlns="http://www.w3.org/2000/svg" version="1.1" viewBox="0 0 182.46 85.37">
  <!-- Generator: Adobe Illustrator 30.8.0, SVG Export Plug-In . SVG Version: 2.1.4 Build 28)  -->
  <circle cx="162.51" cy="27.95" r="4.44" fill="#fff"/>
  <g>
    <path d="M50.99,48.14l-25.26.03c-.06,1.3-.08,2.52.08,3.7.22,1.58,1.64,2.4,3.11,2.4h24.31v4.66c0,.84-.67,1.52-1.5,1.52l-22.84.05c-4.85,0-9.39-3.47-9.66-8.5-.25-4.4-.15-8.56-.05-13.04s3.9-8.72,8.58-8.73l23.97-.09c.84,0,1.52.67,1.52,1.5l.03,4.62-24.36.05c-1.42,0-2.93,1.05-3.13,2.45-.17,1.16-.12,2.29-.03,3.55h25.26l-.05,5.87h.02v-.04Z" fill="#fff"/>
    <path d="M141.33,54.27h-21.87l-3.25,6.02h-4.97c-1.13,0-1.86-1.21-1.33-2.21l12.78-24.48c1.44-2.76,4.58-3.64,7.36-3.65,3.41-.03,5.98,1.47,7.65,4.34l13.4,23.79c.57,1.01-.15,2.25-1.32,2.25h-4.92l-3.53-6.06h0l.02.02-.02-.02ZM137.95,48.45s-3.39-7.48-4.75-9.82c-.46-.77-1.22-1.89-2.96-1.89-1.53,0-2.35,1.13-2.82,1.87-1.42,2.34-4.88,9.87-4.88,9.87" fill="#fff"/>
  </g>
  <path d="M105.29,60.22l-6.64.09-.08-22.46-11.97,13.94c-2.51,2.57-6.64,2.32-8.86-.5l-11.27-13.41-.09,22.46-6.75-.09.03-27.1c0-1.66,1.35-3,3-3.02h3.73c2.04.06,3.27,1.24,4.49,2.66l11.55,13.5,12.39-14.34c.98-1.12,2.85-1.98,4.32-2h2.97c1.72-.08,3.13,1.29,3.13,3v27.26h.05,0Z" fill="#fff"/>
  <path d="M159.09,36.09h4.55c1.22,0,2.21.99,2.21,2.21v21.99h-6.77v-24.21h0Z" fill="#fff"/>
</svg>