<?xml version="1.0" encoding="UTF-8"?>
<svg id="Layer_1" xmlns="http://www.w3.org/2000/svg" version="1.1" viewBox="0 0 182.46 85.37">
  <!-- Generator: Adobe Illustrator 30.2.1, SVG Export Plug-In . SVG Version: 2.1.1 Build 1)  -->
  <defs>
    <style>
      .st0 {
        fill: #cacbd3;
      }

      .st1 {
        fill: #d69043;
      }
    </style>
  </defs>
  <circle class="st1" cx="156.45" cy="15.76" r="4.17"/>
  <g>
    <path class="st0" d="M50.89,70.5c-.49-.24-.88-.61-1.16-1.09-.29-.49-.43-1.06-.43-1.74s.14-1.24.44-1.72c.29-.49.68-.86,1.18-1.11.5-.26,1.06-.39,1.68-.39.41,0,.79.06,1.15.17.36.11.68.27.96.48l-.68,1.04c-.41-.31-.88-.46-1.43-.46s-1.01.18-1.37.53c-.36.36-.53.83-.53,1.43s.18,1.11.53,1.46.79.53,1.32.53c.3,0,.58-.04.83-.12s.52-.23.78-.45l.63,1.07c-.32.25-.67.43-1.04.55s-.78.18-1.23.18c-.61,0-1.15-.12-1.64-.37h.01Z"/>
    <path class="st0" d="M61.17,66.88v3.86h-1.22c0-.43,0-.77.04-1.01h-.04c-.21.36-.51.63-.91.82s-.83.29-1.27.29c-.65,0-1.21-.17-1.67-.51s-.68-.83-.68-1.48c0-.45.11-.82.34-1.13s.53-.53.9-.68.78-.22,1.22-.22c.35,0,.69.04,1.03.11s.63.18.88.33v-.34c0-.45-.16-.77-.49-.97-.32-.2-.74-.3-1.26-.3-.28,0-.58.04-.91.11-.32.07-.63.17-.92.27l-.32-1.08c.73-.32,1.48-.47,2.25-.47,2.02,0,3.03.8,3.03,2.41h0ZM59.24,69.33c.34-.24.53-.57.58-1-.22-.14-.48-.26-.8-.34s-.61-.13-.87-.13c-.38,0-.7.08-.96.24s-.39.39-.39.68.13.52.38.68c.25.15.55.23.89.23.44,0,.83-.12,1.16-.35h0Z"/>
    <path class="st0" d="M62.91,70.73v-6.14h1.29c0,.31,0,.64-.04,1.01h.03c.13-.32.36-.59.68-.81s.71-.32,1.16-.32c.32,0,.59.04.83.12l-.36,1.23c-.17-.07-.37-.1-.61-.1-.48,0-.87.17-1.16.5s-.44.78-.44,1.33v3.18h-1.39.01Z"/>
    <path class="st0" d="M67.98,63.43c-.17-.16-.26-.36-.26-.6,0-.26.08-.47.25-.63s.38-.24.65-.24.48.08.65.24c.17.16.25.37.25.63,0,.24-.09.44-.26.6s-.38.24-.64.24-.47-.08-.64-.24h0ZM69.33,70.73h-1.39v-6.14h1.39v6.14Z"/>
    <path class="st0" d="M71.17,70.73v-6.14h1.28c0,.27,0,.65-.04,1.12h.04c.18-.41.46-.73.83-.93.37-.21.81-.31,1.32-.31.83,0,1.46.24,1.9.73.44.49.66,1.18.66,2.08v3.46h-1.39v-3.33c0-.54-.13-.96-.38-1.26-.25-.3-.62-.45-1.11-.45s-.91.17-1.23.51-.49.77-.49,1.29v3.23h-1.39,0Z"/>
    <path class="st0" d="M78.83,72.99l.52-1.12c.5.23.93.4,1.29.5.37.1.72.15,1.07.15.56,0,.99-.13,1.31-.39s.49-.63.53-1.11l.09-1.29h-.03c-.18.34-.46.61-.82.82-.36.21-.8.31-1.32.31-.6,0-1.13-.13-1.59-.4s-.82-.64-1.08-1.12c-.26-.48-.39-1.04-.39-1.67s.13-1.19.39-1.68.62-.87,1.08-1.14.98-.4,1.57-.4c.51,0,.97.11,1.37.34.4.22.67.5.82.82h.03c0-.24-.01-.58-.01-1.02h1.29v6.16c0,.97-.28,1.72-.85,2.24-.56.53-1.36.79-2.38.79s-2.02-.26-2.91-.78h.02ZM83.04,69.08c.35-.36.52-.83.52-1.4s-.17-1.07-.52-1.44-.79-.56-1.33-.56-1.01.18-1.36.55-.53.84-.53,1.4.17,1.07.52,1.44.8.55,1.34.55,1.01-.18,1.36-.54h0Z"/>
    <path class="st0" d="M92.01,70.54c-.39-.22-.66-.49-.81-.81h-.04v1.01h-1.29v-8.7h1.39v1.88c0,.66-.04,1.24-.11,1.73h.02c.2-.35.49-.63.88-.85s.84-.33,1.36-.33c.56,0,1.07.13,1.52.39.45.26.8.63,1.06,1.11s.39,1.04.39,1.67-.13,1.2-.39,1.7-.62.87-1.08,1.14c-.46.27-.98.4-1.55.4-.51,0-.97-.11-1.36-.33h.01,0ZM94.46,69.08c.36-.37.54-.84.54-1.42s-.18-1.06-.53-1.42c-.35-.37-.81-.55-1.36-.55s-.99.18-1.34.55-.52.84-.52,1.42.17,1.06.52,1.42.78.55,1.31.55c.56,0,1.02-.18,1.38-.55h0Z"/>
    <path class="st0" d="M101.78,64.59h1.5l-2.97,7.45c-.23.58-.51,1-.84,1.27s-.73.4-1.21.4c-.44,0-.87-.12-1.28-.36l.47-1.13c.23.14.48.21.73.21.22,0,.39-.06.53-.18.14-.12.27-.35.4-.68l.27-.66-2.66-6.32h1.52l1.19,3.01c.22.54.43,1.13.65,1.78h.03l.12-.37c.26-.77.41-1.24.47-1.39l1.07-3.02h.01Z"/>
    <path class="st0" d="M111.13,70.52c-.24.11-.47.18-.68.23s-.45.07-.7.07c-.65,0-1.14-.19-1.49-.56s-.52-.92-.52-1.63v-2.89h-1.16v-1.16h1.16v-1.6l1.38-.15v1.75h1.77v1.16h-1.77v2.85c0,.68.29,1.02.86,1.02.25,0,.51-.07.77-.2l.39,1.11h-.01Z"/>
    <path class="st0" d="M117.89,68.16h-4.7c.04.46.23.83.58,1.11s.77.41,1.29.41c.32,0,.65-.06.99-.17s.64-.28.91-.52l.66.92c-.3.32-.68.55-1.16.71-.47.16-.96.24-1.45.24-.64,0-1.2-.13-1.68-.39-.49-.26-.86-.63-1.13-1.12-.27-.48-.4-1.05-.4-1.7s.14-1.19.42-1.67.66-.86,1.16-1.13c.49-.27,1.05-.4,1.67-.4.86,0,1.56.27,2.09.81s.8,1.32.8,2.34c0,.14,0,.33-.02.56h-.03ZM113.8,66.01c-.32.24-.51.61-.6,1.09h3.4c-.03-.47-.2-.83-.49-1.08-.29-.25-.67-.37-1.13-.37s-.87.12-1.18.37h0Z"/>
    <path class="st0" d="M120.31,70.5c-.49-.24-.88-.61-1.16-1.09-.29-.49-.43-1.06-.43-1.74s.14-1.24.44-1.72c.29-.49.68-.86,1.18-1.11.5-.26,1.06-.39,1.68-.39.41,0,.79.06,1.15.17.36.11.68.27.96.48l-.68,1.04c-.41-.31-.88-.46-1.43-.46s-1.01.18-1.37.53c-.36.36-.54.83-.54,1.43s.18,1.11.53,1.46.79.53,1.32.53c.3,0,.58-.04.83-.12s.52-.23.78-.45l.63,1.07c-.32.25-.67.43-1.04.55s-.78.18-1.23.18c-.61,0-1.15-.12-1.64-.37h.02Z"/>
    <path class="st0" d="M125.5,70.73v-8.7h1.39v1.88c0,.66-.04,1.24-.11,1.73h.03c.21-.34.5-.62.87-.84s.79-.33,1.26-.33c.83,0,1.46.24,1.9.73.44.49.66,1.18.66,2.08v3.46h-1.39v-3.33c0-.54-.13-.96-.38-1.26-.25-.3-.62-.45-1.11-.45s-.91.17-1.23.51-.48.77-.48,1.29v3.23h-1.41Z"/>
  </g>
  <g>
    <path class="st0" d="M51.79,34.71l-23.71.03c-.06,1.21-.08,2.37.07,3.47.2,1.48,1.54,2.26,2.92,2.26h22.82v4.38c0,.78-.63,1.42-1.41,1.42l-21.43.04c-4.55,0-8.81-3.25-9.07-7.98-.23-4.13-.14-8.04-.05-12.24s3.66-8.18,8.05-8.2l22.5-.09c.78,0,1.42.63,1.42,1.41l.02,4.33-22.86.04c-1.34,0-2.74,1-2.94,2.29-.16,1.08-.12,2.15-.03,3.33h23.71l-.04,5.51h.03Z"/>
    <path class="st0" d="M136.56,40.47l-20.52-.02-3.05,5.68h-4.66c-1.06,0-1.75-1.13-1.26-2.07l12-22.97c1.35-2.59,4.3-3.41,6.9-3.44,3.2-.03,5.62,1.38,7.18,4.07l12.57,22.32c.53.95-.15,2.11-1.24,2.11h-4.62l-3.31-5.68h.01,0ZM133.39,35s-3.18-7.02-4.47-9.21c-.43-.73-1.14-1.77-2.77-1.77-1.43,0-2.21,1.06-2.64,1.76-1.34,2.19-4.57,9.25-4.57,9.25"/>
  </g>
  <rect class="st1" x="22.36" y="53.54" width="137.93" height="1.17"/>
  <path class="st0" d="M102.74,46.05l-6.23.08-.07-21.08-11.24,13.08c-2.35,2.42-6.24,2.18-8.31-.47l-10.58-12.58-.08,21.08-6.34-.09.04-25.43c0-1.56,1.26-2.82,2.82-2.83l3.5-.02c1.92.07,3.06,1.18,4.21,2.52l10.84,12.68,11.63-13.46c.91-1.05,2.67-1.86,4.06-1.87l2.79-.02c1.61-.06,2.94,1.22,2.94,2.83l.02,25.58h0Z"/>
  <path class="st0" d="M153.23,23.4h4.92c.79,0,1.43.64,1.43,1.43v21.29h-6.35v-22.72h0Z"/>
</svg>