<?xml version="1.0" encoding="UTF-8"?>
<svg id="Layer_1" xmlns="http://www.w3.org/2000/svg" baseProfile="tiny" version="1.2" viewBox="0 0 477.82 318.56">
  <!-- Generator: Adobe Illustrator 30.5.0, SVG Export Plug-In . SVG Version: 2.1.4 Build 102)  -->
  <path d="M477.76,97.9l.06,95.89c-1.36,1.83-4.16,5.21-6.67,5.23l-25.18.14v111.15c0,4.36-3.07,8.24-7.63,8.24h-128.22c-4.52-.01-7.53-4.14-7.53-8.17v-71.41s15.93.03,15.93.03v63.61s15.93-.07,15.93-.07v-87.54s15.91.12,15.91.12l.03,87.54,15.94-.12V111.62s15.92-.09,15.92-.09v71.67s15.94-.08,15.94-.08l-.13-80.55c-.02-12.82-11.24-22.9-23.78-22.9h-63.53c-13.34-.01-23.69,10.27-24.12,23.86l-15.9-.04c.41-22.51,17.96-39.64,40.03-39.74-11.09-14.81-10.8-34.77.61-48.97s30.2-18.73,46.97-11.39c10.47-4.21,21.32-4.29,31.82,0,16.8-7.26,35.9-2.43,46.98,11.4,11.18,13.95,12,33.21.83,48.84,20.51.4,35.96,14.65,39.77,34.26ZM341.48,16.03c-14.06.58-23.84,12.46-22.84,25.7s11.96,22.56,24.88,21.95c13.04-.62,23.34-11.64,22.75-24.86-.56-12.69-11.05-23.35-24.8-22.78ZM374.18,63.69c13.01.03,23.48-10.39,23.88-22.91s-9.36-24.67-23.55-24.53c10.29,14.75,10.45,32.95-.33,47.44ZM406.4,63.6c13.87-.08,23.51-11.28,23.62-23.48.12-12.88-9.86-23.98-23.63-23.99,10.29,14.94,10.26,32.36,0,47.47ZM430.08,183.06l-.08-79.74c-.01-12.9-10.39-23.53-23.61-23.55,4.69,7.37,7.62,14.82,7.74,23.51v79.9s15.95-.12,15.95-.12ZM461.92,183.1l-.07-79.81c-.01-12.98-10.41-23.49-23.74-23.54,5.43,7.95,7.89,16.06,7.89,25.43l-.04,78.01,15.96-.08ZM398.21,302.52v-103.43s-15.94.1-15.94.1v103.35s15.94-.03,15.94-.03ZM430.06,302.23l-.03-103.16-15.91.16v103.43s15.93-.43,15.93-.43Z"/>
  <path d="M119.61,254.87c4.66,0,7.41,3.69,7.82,7.55v40.17s31.85.03,31.85.03v-55.73s15.95.02,15.95.02v63.49c-.01,4-2.99,8.14-7.56,8.14l-159.08.03c-4.92,0-8.6-3.09-8.6-8.3V39.99c0-4.52,3.19-7.87,7.42-7.95l8.49-.15.03-23.86c0-4.2,3.16-7.99,7.68-7.99h128.08c4.44.01,7.58,4.07,7.58,8.02l.02,23.8,7.85.06c4.4.03,8.08,3.32,8.08,8v79.57s-15.93-.09-15.93-.09V47.79s-143.35,0-143.35,0v254.83s31.81.01,31.81.01l.04-39.75c0-4.18,3.22-8,7.67-8h64.15ZM143.32,31.92v-15.95s-111.46.02-111.46.02l.13,15.94h111.33ZM79.65,302.48l-.04-31.66-15.92.09.05,31.73,15.92-.16ZM111.5,302.48l-.05-31.65-15.92.09.03,31.73,15.93-.16Z"/>
  <path d="M284.58,244.42c-2.58,2.58-6.31,2.92-8.95,1.86s-4.88-4.31-4.88-7.6v-23.66s-63.67,0-63.67,0v23.68c0,2.95-1.95,6.12-4.23,7.28-2.76,1.4-6.84,1.16-9.31-1.31l-55.87-55.89c-3.24-3.24-2.88-8.22.14-11.25l55.45-55.47c2.45-2.45,5.86-3.17,8.81-2.06,2.74,1.03,5.02,4.15,5.02,7.41l-.02,23.95h63.71s-.02-23.95-.02-23.95c0-3.26,2.27-6.38,5.02-7.41,2.93-1.1,6.38-.39,8.82,2.05l55.44,55.46c3.02,3.02,3.36,8.05.15,11.27l-55.6,55.63ZM287.06,219.19l36.15-36.03-36.38-36.32-.2,12.46c-.12,4.44-3.42,7.94-7.98,7.94h-79.47c-4.54,0-7.89-3.49-7.97-7.94l-.26-12.32-36.29,36.2,36.31,36.2.25-11.72c-.34-4.27,2.86-8.56,7.62-8.56h80.16c4.33,0,7.62,3.72,7.53,7.66l.54,12.42Z"/>
  <path d="M135.26,111.49h-31.61c-4.52,0-7.65-3.23-8.1-7.65l.02-32.13c0-4.34,3.56-7.99,7.97-7.99h31.84c4.4,0,7.96,3.65,7.97,7.99l.02,32.13c-.47,4.41-3.58,7.65-8.1,7.65ZM127.47,95.51l-.05-15.88h-15.96s.1,15.95.1,15.95l15.92-.07Z"/>
  <path d="M72.22,111.48l-32.11.02c-4.68,0-8.29-3.48-8.28-8.23l.05-31.68c0-4.55,3.8-7.91,8.19-7.9l31.83.06c4.14,0,7.69,3.65,7.69,7.74l.04,31.81c0,4.25-2.8,7.61-7.41,8.19ZM63.74,95.45l-.09-15.8-15.9.03v15.93s15.99-.16,15.99-.16Z"/>
  <path d="M72.4,238.95h-32.34c-4.38,0-8.17-3.33-8.18-7.9l-.05-31.67c0-4.75,3.6-8.24,8.28-8.23l31.69.05c4.56,0,7.85,3.71,7.84,8.12l-.04,31.82c0,3.92-3.07,7.07-7.19,7.8ZM63.74,223l-.11-15.91-15.87.02v15.89s15.98,0,15.98,0Z"/>
  <path d="M72.34,175.27l-32.21-.03c-4.87,0-8.29-3.82-8.29-8.49v-30.86c0-4.68,3.41-8.49,8.28-8.49l31.74.03c4.32,0,7.4,3.39,7.76,7.53v32.71c-.37,3.93-2.93,6.95-7.28,7.6ZM63.72,159.32l-.04-15.99h-15.91s0,16,0,16h15.95Z"/>
  <path d="M127.52,159.81l-.08,15.45-23.87-.03c-4.73,0-8.24-4.02-8.01-8.56l-.04-30.7c0-4.57,3.16-8.53,8.07-8.54l31.72-.04c4.89.23,8.07,3.87,8.07,8.59l-.03,23.33-15,.03-.84.47ZM127.43,158.58v-15.25s-15.95,0-15.95,0v16.02s15.95-.07,15.95-.07v-.7Z"/>
  <path d="M127.39,207.21l15.97-.1-.02,23.86c0,4.27-3.56,7.97-7.96,7.97h-31.85c-4.37,0-7.98-3.67-7.98-7.99l.04-32.18c0-3.74,3.42-7.53,7.16-7.54l24.7-.04-.02,15.92-15.96.04.02,15.88,15.95.03-.05-15.83Z"/>
  <polygon points="318.59 127.3 302.6 127.51 302.59 111.54 318.5 111.49 318.59 127.3"/>
</svg>