<?xml version="1.0" encoding="UTF-8"?>
<svg id="Layer_1" xmlns="http://www.w3.org/2000/svg" baseProfile="tiny" version="1.2" viewBox="0 0 270.01 383.18">
  <!-- Generator: Adobe Illustrator 30.5.0, SVG Export Plug-In . SVG Version: 2.1.4 Build 102)  -->
  <path d="M138,383.18h-6C55.61,364.47.11,295.63.07,215.98l-.07-142.57C.86,34.82,30.18,3.94,68.68,0h132.65c39.11,3.93,68.54,35.75,68.69,74.93l-.04,140.31c-.02,79.91-55.25,149.2-131.97,167.94ZM239.91,215.84V74.09c-.01-24.13-20.1-44.11-44.16-44.11h-121.5c-24.06,0-44.15,19.99-44.15,44.1v141.99c0,64.01,43.46,119.64,104.95,136.62,61.3-16.93,104.87-72.57,104.86-136.84Z"/>
  <path d="M179.97,221.09c-.32-25.3-21.05-44.69-45.34-44.49-24.43.21-44.53,20.03-44.65,44.91-.04,8.73-7.14,15.13-15.33,14.93-8.36-.2-14.81-6.94-14.68-15.6.62-39.06,29.96-70.42,69.62-74.27-23.82-3.73-40.83-23.7-39.5-47.45,1.31-23.45,20.99-42.11,44.55-42.3,23.65-.19,43.54,18.21,45.22,41.61s-15.38,44.39-39.45,48.16c39.95,3.8,69.4,35.67,69.57,75.03.04,8.34-6.84,14.67-14.6,14.82-8.4.16-15.3-6.13-15.42-15.35ZM131.95,87.11c-8.81,1.82-13.45,10.35-11.49,18.25s9.72,12.65,17.59,11.02c8.09-1.67,13.32-9.57,11.62-17.7-1.61-7.71-9.11-13.34-17.72-11.56Z"/>
  <path d="M165.41,296.3l-60.4.05c-8.49,0-14.81-6.77-14.99-14.62s6.24-15.31,14.98-15.31h60c8.48,0,14.8,6.68,14.98,14.63s-5.73,15.25-14.57,15.26Z"/>
</svg>