<?xml version="1.0" encoding="UTF-8"?>
<svg id="Layer_1" xmlns="http://www.w3.org/2000/svg" baseProfile="tiny" version="1.2" viewBox="0 0 383.45 383.26">
  <!-- Generator: Adobe Illustrator 30.5.0, SVG Export Plug-In . SVG Version: 2.1.4 Build 64)  -->
  <path d="M0,290.39v-11.76c3.27-22.23,21.79-38.93,44.71-39.1,8.38-.06,14.96-6.55,14.97-14.97l.1-76.27c.07-50.4,32.87-95,80.19-111.6,7.66-2.69,15.01.73,18.3,7.94,3.65,7.99.42,17.21-8.12,20.21-36.46,12.8-60.48,46.96-60.51,85.68l-.05,74.79c-.02,24.66-20.55,44.01-44.86,44.22-9.61.08-15.85,7.99-15.02,17.19.48,5.28,3.21,9.46,8.64,10.97s11.56,2.48,17.57,2.43l46.63-.4c68.91-1.89,137.13-1.91,206.02-.28,8.73.21,14.79-6.89,15.12-14.61s-5.77-15.03-14.44-15.11l-31.31-.27c-8.38-.07-14.17-6.81-14.17-14.89,0-8.59,6.25-15.07,14.91-15.01l31.44.2c24.6.95,43.32,20.32,43.54,44.5.21,22.79-18.38,44.89-42.83,44.91l-266.8.17c-22.72.01-40.86-17.5-44.05-38.92Z"/>
  <path d="M383.45,96.86l-.02,16.05c-4.57,56.59-53.27,99.2-109.57,96.58-55.96-2.61-100.35-49.03-100.15-105.03C173.9,48.23,218.89,1.95,275.29.06c55.92-1.88,103.77,40.87,108.16,96.8ZM271.21,30.37c-41.89,4.24-71.53,41.74-67.06,82.52,4.46,40.74,41.21,70.5,82.05,66.39,41.07-4.14,71.28-40.92,67.11-81.97-4.12-40.55-40.42-71.16-82.11-66.94Z"/>
  <path d="M194.71,383.26h-36c-7.69-1.87-12.84-9.04-11.89-16.77s7.48-13.21,15.61-13.21h28.56c8.36,0,15,5.65,15.67,13.87.6,7.44-4.49,14.29-11.95,16.1Z"/>
  <path d="M263.66,111.38l-4.69,4.38c-6.18,5.77-14.86,5.5-20.8-.45s-6.42-14.73-.4-20.74l30.33-30.28c4.43-4.42,10.61-5.55,16.42-3.2,5.23,2.12,9.19,7.31,9.19,13.81l.03,59.83c0,8.72-6.4,14.88-15.01,14.9s-15-6.26-15.01-14.84l-.04-23.4Z"/>
</svg>