<?xml version="1.0" encoding="UTF-8"?>
<svg id="Layer_1" xmlns="http://www.w3.org/2000/svg" baseProfile="tiny" version="1.2" viewBox="0 0 384 383.27">
  <!-- Generator: Adobe Illustrator 30.5.0, SVG Export Plug-In . SVG Version: 2.1.4 Build 64)  -->
  <path d="M384,162.45v11.23c-1.86,7.4-8.57,12.52-16.16,11.92-7.64-.61-13.81-6.83-13.83-14.79-.09-33.72-27.28-60.08-60.89-60.08H90.85c-33.06,0-60.78,25.91-60.76,59.32l.08,124.83c.02,32.18,27.16,58.35,59.03,58.37l55.58.04c8.14,0,14.64,5.34,15.61,13.21s-4.21,14.89-11.88,16.77h-66.75c-42.92-4.15-77.61-38.75-81.75-81.59l.12-138.98c4.72-45.65,42.42-81.76,89.32-81.75l205.89.06c46.45.01,84.08,36.59,88.67,81.45Z"/>
  <path d="M384,361.56v9.73c-1.59,5.96-6.03,10.39-12,11.98h-6c-7.83-1.92-11.97-8.33-12.21-16.55-.44-15.24-12.74-27.69-27.81-29.46-5.88-.69-11.58-.69-17.46,0-15.07,1.78-27.39,14.22-27.81,29.46-.23,8.23-4.39,14.63-12.21,16.55h-6c-6.39-1.71-11.74-7.04-11.92-14.21-.3-11.57,2.91-22.13,8.58-32.1-20.14-2.4-37.97,10.94-38.45,29.78-.21,8.18-4.4,14.62-12.21,16.53h-6c-8.01-1.97-12.43-8.82-12.04-17.22,1.6-34.59,30.82-60.35,65.37-59.24,10.94.35,21.32.4,31.41,5.73,9.87-5.27,19.97-5.3,30.71-5.73,33.36-1.33,61.87,22.1,66.05,54.75Z"/>
  <path d="M287.22,213.59c18.47-16.26,45.72-14.91,62.37,2.28,16.69,17.23,16.87,44.49.37,61.94-16.54,17.49-44.21,19.15-62.71,2.63-18.35,16.37-45.73,14.9-62.34-2.25-16.7-17.24-16.88-44.52-.36-61.95,16.36-17.26,43.81-19.33,62.67-2.66ZM254.2,232.42c-8.81,1.82-13.45,10.34-11.49,18.25s9.72,12.65,17.59,11.02,13.32-9.57,11.62-17.7c-1.61-7.71-9.11-13.34-17.72-11.57ZM314.2,232.42c-8.81,1.82-13.45,10.34-11.49,18.25,1.93,7.79,9.72,12.65,17.59,11.02s13.32-9.57,11.62-17.7c-1.61-7.71-9.11-13.34-17.72-11.57Z"/>
  <path d="M95.2,155.32c8.63-1.77,16.13,3.85,17.73,11.57,1.69,8.14-3.53,16.04-11.63,17.7s-15.67-3.21-17.6-11.02,2.67-16.44,11.49-18.25Z"/>
  <path d="M159.7,155.32c8.63-1.77,16.13,3.85,17.73,11.57,1.69,8.14-3.53,16.04-11.63,17.7s-15.67-3.21-17.6-11.02,2.67-16.44,11.49-18.25Z"/>
  <path d="M224.2,155.32c8.63-1.77,16.13,3.85,17.73,11.57,1.69,8.14-3.53,16.04-11.63,17.7s-15.67-3.21-17.6-11.02c-1.95-7.91,2.67-16.44,11.49-18.25Z"/>
  <path d="M288.7,155.32c8.63-1.77,16.13,3.85,17.73,11.57,1.69,8.14-3.53,16.04-11.63,17.7s-15.67-3.21-17.6-11.02c-1.95-7.91,2.67-16.44,11.49-18.25Z"/>
  <path d="M95.2,220.44c8.63-1.77,16.13,3.85,17.73,11.57,1.69,8.14-3.53,16.04-11.62,17.7-7.89,1.62-15.67-3.21-17.6-11.02s2.67-16.44,11.49-18.25Z"/>
  <path d="M159.7,220.44c8.63-1.77,16.13,3.85,17.73,11.57,1.69,8.14-3.53,16.04-11.62,17.7s-15.67-3.21-17.6-11.02c-1.95-7.91,2.67-16.44,11.49-18.25Z"/>
  <path d="M95.2,284.81c8.63-1.77,16.13,3.85,17.73,11.57,1.69,8.14-3.53,16.04-11.62,17.7s-15.67-3.21-17.6-11.02,2.67-16.44,11.49-18.25Z"/>
  <path d="M159.7,284.81c8.63-1.77,16.13,3.85,17.73,11.57,1.69,8.14-3.53,16.04-11.62,17.7s-15.67-3.21-17.6-11.02,2.67-16.44,11.49-18.25Z"/>
  <path d="M121.57,45.3c-.15-8.86-6.71-15.13-14.73-15.32-8.25-.19-15.26,6.28-15.33,14.95s-7.19,15.2-15.36,14.95c-8.8-.26-15.07-7.39-14.68-16.49C62.52,19.18,82.31.2,106.14,0c24.16-.2,44.31,18.91,45.39,43.39.39,8.84-5.48,15.82-13.97,16.46-8.04.6-15.83-5.45-15.99-14.55Z"/>
  <path d="M294.07,45.3c-.15-8.86-6.71-15.13-14.73-15.32s-15.26,6.28-15.33,14.95-7.19,15.2-15.36,14.95c-8.8-.26-15.07-7.39-14.68-16.49C235.02,19.18,254.81.2,278.64,0c24.16-.2,44.31,18.91,45.39,43.39.39,8.84-5.48,15.82-13.97,16.46-8.04.6-15.83-5.45-15.99-14.55Z"/>
</svg>