<?xml version="1.0" encoding="UTF-8"?>
<svg id="Layer_1" xmlns="http://www.w3.org/2000/svg" baseProfile="tiny" version="1.2" viewBox="0 0 384 383.17">
  <!-- Generator: Adobe Illustrator 30.5.0, SVG Export Plug-In . SVG Version: 2.1.4 Build 102)  -->
  <path d="M383.91,81.81l.09,219.77c-4.16,42.82-38.83,77.46-81.75,81.59H81.75c-42.91-4.18-77.6-38.75-81.75-81.59l.07-106.24c4.46-32.17,27.03-58.62,59.17-65.14l.03-37.32C57.83,44.6,93.95,4.47,142.25,0h158.76c44.56,4.18,78.16,38.09,82.89,81.81ZM30.15,294.53c0,32.85,27.61,58.69,59.93,58.68l204.6-.07c32.38-.01,59.23-26.8,59.24-59.14l.07-204.11c.01-33.7-27.31-60.12-60.84-60.1l-143.84.07c-32.69.02-59.96,26.37-59.98,59.24l-.14,207.84c0,9.1-8.01,14.77-15.92,14.24-8.36-.55-14.01-6.84-14.01-15.7l-.02-134.29c-17.22,6.24-29.1,22.33-29.1,40.87v92.47Z"/>
  <path d="M309.3,111.43l-174.18.04c-9.19,0-15.62-6.11-15.79-14.64s6.33-15.33,15.78-15.33l173.79.02c8.63,0,14.88,6.67,15.05,14.63s-5.62,15.27-14.66,15.27Z"/>
  <path d="M310.07,191.48l-108.98.04c-9.11,0-15.18-7.09-15-15.27.19-8.65,6.64-14.65,15.75-14.65h107.09c8.82,0,15.2,5.6,15.72,13.98.49,7.91-5.08,15.9-14.57,15.91Z"/>
  <path d="M310.16,251.37l-58.12.09c-9.03.01-15.55-6.17-15.72-14.65s6.42-15.36,15.71-15.35l57.72.04c8.47,0,14.8,6.65,14.98,14.62s-5.74,15.23-14.57,15.25Z"/>
  <path d="M192.41,251.37l-58.11.03c-9.03,0-15.16-7.08-14.97-15.27.2-8.63,6.69-14.67,15.71-14.67l56.96.04c8.47,0,14.8,6.65,14.98,14.62s-5.74,15.25-14.57,15.25Z"/>
  <path d="M192.4,311.26l-58.11.03c-9.01,0-15.15-7.09-14.97-15.27.19-8.63,6.7-14.67,15.71-14.67l56.97.04c8.47,0,14.8,6.65,14.98,14.62s-5.74,15.25-14.58,15.25Z"/>
  <path d="M279.44,311.24l-28.17.03c-8.98.01-15.14-7.04-14.96-15.27.19-8.59,6.73-14.69,15.69-14.67l27.02.05c8.41.02,14.77,6.64,14.95,14.61s-5.78,15.23-14.54,15.24Z"/>
  <path d="M134.2,156.83c10.82-2.1,20.28,4.62,22.1,14.53s-4.19,20.01-14.63,22.05c-9.81,1.91-19.55-4.07-21.89-14.01s3.6-20.46,14.42-22.56Z"/>
</svg>