<svg width="31" height="31" viewBox="0 0 31 31" fill="none" xmlns="http://www.w3.org/2000/svg">
<path d="M0 10.3979C0 6.71996 0 4.88098 0.727121 3.48121C1.33986 2.30164 2.30164 1.33986 3.48121 0.727121C4.88098 0 6.71996 0 10.3979 0H20.6021C24.28 0 26.119 0 27.5188 0.727121C28.6984 1.33986 29.6601 2.30164 30.2729 3.48121C31 4.88098 31 6.71996 31 10.3979V20.6021C31 24.28 31 26.119 30.2729 27.5188C29.6601 28.6984 28.6984 29.6601 27.5188 30.2729C26.119 31 24.28 31 20.6021 31H10.3979C6.71996 31 4.88098 31 3.48121 30.2729C2.30164 29.6601 1.33986 28.6984 0.727121 27.5188C0 26.119 0 24.28 0 20.6021V10.3979Z" fill="url(#paint0_linear_448_866)"/>
<path d="M21.5281 19.8051L22.217 15.4996H18.0837V12.4857C18.0837 11.2801 18.5142 10.3329 20.4087 10.3329H22.3892V6.37179C21.2698 6.19957 20.0642 6.02734 18.9448 6.02734C15.4142 6.02734 12.917 8.18012 12.917 12.0551V15.4996H9.04199V19.8051H12.917V30.9996C14.6392 30.9996 16.3614 30.9996 18.0837 30.9996V19.8051H21.5281Z" fill="white"/>
<defs>
<linearGradient id="paint0_linear_448_866" x1="15.5" y1="30.0942" x2="15.5" y2="0" gradientUnits="userSpaceOnUse">
<stop stop-color="#0062E0"/>
<stop offset="1" stop-color="#19AFFF"/>
</linearGradient>
</defs>
</svg>
