<?xml version="1.0" encoding="UTF-8"?>
<svg id="Layer_1" xmlns="http://www.w3.org/2000/svg" baseProfile="tiny" version="1.2" viewBox="0 0 384 351.65">
  <!-- Generator: Adobe Illustrator 30.5.0, SVG Export Plug-In . SVG Version: 2.1.4 Build 102)  -->
  <path d="M383.84,98.82l.16,17.9-.69,3.81c-4.55,58.27-31.11,108.39-68.72,152.23-17.88,20.84-38.12,38.82-59.11,56.04-37.22,30.51-89.7,30.46-126.95,0-21.97-17.97-43.19-36.75-61.78-58.6C30.84,228,4.87,179.46.72,123.52l-.72-4.56.23-21.03c2.86-30.64,17.55-58.59,42.23-77.31C90.42-15.41,156.84-2.33,191.75,45.12,217.78,8.74,262.29-7.49,305.36,3.66c25.37,6.57,47.28,21.93,61.59,43.98,10.15,15.64,15.09,33.11,16.89,51.18ZM353.83,112.59c2.78-47.15-33.77-86.3-79.93-82.39-20.67,1.75-39.9,10.85-53.34,26.62-7.58,8.89-13.14,19.65-13.33,31.37-.15,9.1-5.87,16.35-14.89,16.58-8.66.22-15.4-6.74-15.49-15.77-.09-9.91-4.06-18.85-9.8-26.79-8.32-11.53-19.61-19.87-32.56-25.76-29.98-13.64-64.88-5.66-86,19.44-13.19,15.67-19.22,34.99-18.5,55.63,1.84,52.61,24.12,96.19,57.07,136.13,17.72,21.48,38.27,39.61,59.45,57.21,26.97,22.41,63.98,22.42,90.97.01,21.59-17.93,42.41-36.59,60.25-58.65,31.69-39.17,53.05-82.08,56.09-133.64Z"/>
  <path d="M193.32,152.96l-11.9,57.23c-2,9.62-7.6,17.38-16.2,22.08s-18.77,5.76-28.8,1.42c-7.81-3.38-14.76-10.48-17.71-19.97-1.21-3.9-2.37-7.81-4.1-11.7-4.31-9.68-14.57-16.6-25.29-16.93-9.13-.28-16.04-6.7-15.8-15.61s7.35-15.07,16.61-14.54c22.88,1.29,43.67,15.17,52.55,36.38,2.65,6.34,5.14,17.54,6.99,16.13l2.03-1.55,11.75-57.02c2.3-14.76,14.27-25.05,29.37-25.36,14.6-.3,28,9.5,30.22,24.41l12.2,81.97c.12.78.89,2.1,1.49,2.28.75.23,2.4-.61,2.85-1.26l5.38-33.6c6.48-23.48,26.28-40.4,50.44-42.36,9.59-.78,17.31,4.67,17.93,13.82.66,9.73-6.48,16.06-16.43,16.39-10.8.36-20.94,9.42-22.73,20l-5.48,32.38c-2.05,12.11-12.31,20.86-24.23,23.58-17.52,4.01-35.68-6.97-38.44-25.04l-12.68-83.15Z"/>
</svg>