<?xml version="1.0" encoding="UTF-8"?>
<svg id="Layer_1" xmlns="http://www.w3.org/2000/svg" baseProfile="tiny" version="1.2" viewBox="0 0 192.02 191.87">
  <!-- Generator: Adobe Illustrator 30.5.0, SVG Export Plug-In . SVG Version: 2.1.4 Build 64)  -->
  <path d="M123.72,134.53c.03,15.61-12.97,27.13-27.31,27.33-14.62.2-28.02-11.56-27.99-27l.19-109.24C68.63,10.51,81.72,0,96.06,0c14.36,0,27.42,10.51,27.45,25.61l.22,108.92ZM108.81,133.72l-.04-106.78c0-7.29-6.61-12.22-13.06-12.04s-12.36,5-12.36,12.05l-.03,107.12c0,7.58,6.19,12.92,13.05,12.73s12.44-5.3,12.44-13.07Z"/>
  <path d="M191.96,134.57c.05,15.54-12.92,27.1-27.3,27.29-14.68.2-28.02-11.59-27.98-26.97l.19-68.06c.04-15.04,12.96-25.58,27.44-25.58s27.39,10.54,27.44,25.58l.21,67.74ZM177.06,133.77l-.06-65.62c0-7.21-6.57-12.18-13.04-12.01s-12.35,5.04-12.35,12.01l-.04,65.95c0,7.5,6.18,12.88,13.05,12.7s12.44-5.37,12.43-13.03Z"/>
  <path d="M185.45,191.83l-177.77.04c-4.57,0-7.37-3.39-7.55-7.17-.2-4.1,2.71-7.83,7.55-7.83h176.75c4.31,0,7.04,2.95,7.54,6.58.41,3-1.7,8.39-6.52,8.39Z"/>
  <path d="M55.49,134.62c-.24,15.42-12.85,27.05-27.32,27.24S.46,150.23.14,134.93c-.17-7.93-.26-15.45.16-23.16.82-14.93,12.78-25.53,27.5-25.54,14.74,0,26.66,10.6,27.51,25.54.42,7.44.31,14.66.18,22.85ZM40.53,133.83l.08-19.24c.03-7.46-5.14-13.22-12.48-13.46-6.37-.21-12.97,4.81-12.99,11.98l-.06,21.04c-.02,7.41,6.15,12.84,13.04,12.66s12.38-5.44,12.41-12.98Z"/>
</svg>