<svg width="31" height="31" viewBox="0 0 31 31" fill="none" xmlns="http://www.w3.org/2000/svg">
<g clip-path="url(#clip0_448_867)">
<path d="M0.0175781 10.3979C0.0175781 6.71996 0.0175781 4.88098 0.7447 3.48121C1.35744 2.30164 2.31921 1.33986 3.49878 0.727121C4.89855 0 6.73753 0 10.4155 0H20.6197C24.2976 0 26.1366 0 27.5364 0.727121C28.7159 1.33986 29.6777 2.30164 30.2905 3.48121C31.0176 4.88098 31.0176 6.71996 31.0176 10.3979V20.6021C31.0176 24.28 31.0176 26.119 30.2905 27.5188C29.6777 28.6984 28.7159 29.6601 27.5364 30.2729C26.1366 31 24.2976 31 20.6197 31H10.4155C6.73753 31 4.89855 31 3.49878 30.2729C2.31921 29.6601 1.35744 28.6984 0.7447 27.5188C0.0175781 26.119 0.0175781 24.28 0.0175781 20.6021V10.3979Z" fill="url(#paint0_radial_448_867)"/>
<path d="M0.0175781 10.3979C0.0175781 6.71996 0.0175781 4.88098 0.7447 3.48121C1.35744 2.30164 2.31921 1.33986 3.49878 0.727121C4.89855 0 6.73753 0 10.4155 0H20.6197C24.2976 0 26.1366 0 27.5364 0.727121C28.7159 1.33986 29.6777 2.30164 30.2905 3.48121C31.0176 4.88098 31.0176 6.71996 31.0176 10.3979V20.6021C31.0176 24.28 31.0176 26.119 30.2905 27.5188C29.6777 28.6984 28.7159 29.6601 27.5364 30.2729C26.1366 31 24.2976 31 20.6197 31H10.4155C6.73753 31 4.89855 31 3.49878 30.2729C2.31921 29.6601 1.35744 28.6984 0.7447 27.5188C0.0175781 26.119 0.0175781 24.28 0.0175781 20.6021V10.3979Z" fill="url(#paint1_radial_448_867)"/>
<path d="M15.5009 4.22754C12.4395 4.22754 12.0553 4.24093 10.8529 4.29565C9.65284 4.3506 8.83372 4.54059 8.11698 4.81936C7.37559 5.10728 6.74668 5.49243 6.12013 6.11924C5.4931 6.74582 5.10796 7.37474 4.8191 8.11592C4.53964 8.83292 4.34942 9.6523 4.29541 10.8519C4.24163 12.0543 4.22754 12.4388 4.22754 15.5003C4.22754 18.5617 4.24116 18.9448 4.29564 20.1472C4.35083 21.3473 4.54082 22.1664 4.81934 22.8832C5.10749 23.6246 5.49263 24.2535 6.11942 24.8801C6.74574 25.5072 7.37465 25.8932 8.11557 26.1812C8.83278 26.4599 9.65214 26.6499 10.8519 26.7049C12.0543 26.7596 12.4383 26.773 15.4995 26.773C18.5611 26.773 18.9441 26.7596 20.1465 26.7049C21.3465 26.6499 22.1666 26.4599 22.8838 26.1812C23.625 25.8932 24.2529 25.5072 24.8793 24.8801C25.5063 24.2535 25.8914 23.6246 26.1803 22.8834C26.4574 22.1664 26.6476 21.3471 26.704 20.1474C26.758 18.945 26.7721 18.5617 26.7721 15.5003C26.7721 12.4388 26.758 12.0546 26.704 10.8521C26.6476 9.65207 26.4574 8.83292 26.1803 8.11616C25.8914 7.37474 25.5063 6.74582 24.8793 6.11924C24.2522 5.4922 23.6252 5.10705 22.8831 4.81936C22.1645 4.54059 21.3449 4.3506 20.1449 4.29565C18.9425 4.24093 18.5597 4.22754 15.4973 4.22754H15.5009ZM14.4896 6.25898C14.7898 6.25851 15.1246 6.25898 15.5009 6.25898C18.5106 6.25898 18.8673 6.26978 20.0558 6.3238C21.1549 6.37405 21.7514 6.55771 22.1488 6.712C22.6748 6.91632 23.0498 7.16056 23.4441 7.55511C23.8387 7.94965 24.0829 8.32541 24.2877 8.85147C24.442 9.24836 24.6259 9.84488 24.6759 10.944C24.7299 12.1323 24.7416 12.4893 24.7416 15.4977C24.7416 18.5061 24.7299 18.8631 24.6759 20.0514C24.6256 21.1505 24.442 21.747 24.2877 22.1439C24.0834 22.67 23.8387 23.0445 23.4441 23.4388C23.0496 23.8334 22.675 24.0776 22.1488 24.282C21.7519 24.437 21.1549 24.6201 20.0558 24.6704C18.8675 24.7244 18.5106 24.7362 15.5009 24.7362C12.4909 24.7362 12.1342 24.7244 10.9459 24.6704C9.84682 24.6197 9.25033 24.436 8.85274 24.2817C8.32669 24.0774 7.95095 23.8332 7.55642 23.4386C7.16188 23.0441 6.91765 22.6692 6.71287 22.143C6.55857 21.7461 6.37469 21.1495 6.32467 20.0505C6.27066 18.8621 6.25986 18.5052 6.25986 15.4949C6.25986 12.4846 6.27066 12.1295 6.32467 10.9412C6.37493 9.84206 6.55857 9.24555 6.71287 8.84818C6.91718 8.32212 7.16188 7.94636 7.55642 7.55182C7.95095 7.15727 8.32669 6.91303 8.85274 6.70824C9.25009 6.55324 9.84682 6.37006 10.9459 6.31957C11.9858 6.2726 12.3887 6.25851 14.4896 6.25616V6.25898ZM21.518 8.13072C20.7712 8.13072 20.1653 8.73592 20.1653 9.48298C20.1653 10.2298 20.7712 10.8357 21.518 10.8357C22.2648 10.8357 22.8707 10.2298 22.8707 9.48298C22.8707 8.73616 22.2648 8.13025 21.518 8.13025V8.13072ZM15.5009 9.71125C12.304 9.71125 9.71202 12.3033 9.71202 15.5003C9.71202 18.6973 12.304 21.2881 15.5009 21.2881C18.6978 21.2881 21.2888 18.6973 21.2888 15.5003C21.2888 12.3033 18.6975 9.71125 15.5006 9.71125H15.5009ZM15.5009 11.7427C17.5759 11.7427 19.2583 13.4249 19.2583 15.5003C19.2583 17.5754 17.5759 19.2578 15.5009 19.2578C13.4256 19.2578 11.7434 17.5754 11.7434 15.5003C11.7434 13.4249 13.4256 11.7427 15.5009 11.7427V11.7427Z" fill="white"/>
</g>
<defs>
<radialGradient id="paint0_radial_448_867" cx="0" cy="0" r="1" gradientUnits="userSpaceOnUse" gradientTransform="translate(8.25199 33.3877) rotate(-90) scale(30.7233 28.5751)">
<stop stop-color="#FFDD55"/>
<stop offset="0.1" stop-color="#FFDD55"/>
<stop offset="0.5" stop-color="#FF543E"/>
<stop offset="1" stop-color="#C837AB"/>
</radialGradient>
<radialGradient id="paint1_radial_448_867" cx="0" cy="0" r="1" gradientTransform="matrix(2.69556 13.4663 -55.5075 11.1172 -5.17509 2.23319)" gradientUnits="userSpaceOnUse">
<stop stop-color="#3771C8"/>
<stop offset="0.128" stop-color="#3771C8"/>
<stop offset="1" stop-color="#6600FF" stop-opacity="0"/>
</radialGradient>
<clipPath id="clip0_448_867">
<rect width="31" height="31" fill="white"/>
</clipPath>
</defs>
</svg>
