<?xml version="1.0" encoding="UTF-8"?>
<svg id="Layer_1" xmlns="http://www.w3.org/2000/svg" baseProfile="tiny" version="1.2" viewBox="0 0 384 383.26">
  <!-- Generator: Adobe Illustrator 30.5.0, SVG Export Plug-In . SVG Version: 2.1.4 Build 102)  -->
  <path d="M384,224.57v17.22c-4.34,44.19-41.82,81.36-87.89,81.37l-207.47.07c-46.35.02-84.32-36.83-88.64-81.44L.1,81.89C4.74,38.22,38.49,4.27,82.96.09L233.14,0c9.11-.24,15.6,6.21,15.76,14.62s-5.88,15.31-15,15.31l-143.09-.04c-33.03,0-60.74,25.93-60.73,59.32l.08,145.8c.02,32,27.18,58.36,59.14,58.34l206.07-.09c34.2-.02,60.45-30.01,58.56-63.35-.52-9.11,4.59-16.09,13.19-17.13,7.83-.94,15.05,3.86,16.87,11.79Z"/>
  <path d="M384,328.62v5.99l-1.04,2.76c-14.71,26.2-41.58,43.25-70.96,45.89H72c-29.36-2.69-56.26-19.7-70.96-45.89l-1.04-2.77v-5.99c1.55-6,6.43-10.53,12.12-11.61,6.72-1.27,12.63,1.76,16.08,7.41,11.1,18.22,30.61,28.91,52.15,28.91h223.3c21.8,0,41.3-10.88,52.48-29.36,3.41-5.63,9.79-8.31,16.29-6.84,5.53,1.25,10.02,5.65,11.58,11.49Z"/>
  <path d="M384,160.95v9.73c-1.88,7.66-9.09,12.83-16.79,11.86s-13.18-7.41-13.32-15.68c-.27-15.54-12.47-28.39-27.93-30.21-5.81-.68-11.6-.69-17.41,0-15.45,1.84-27.72,14.65-27.92,30.22-.12,9.41-7.15,16.37-16.24,15.73-8.52-.59-14.83-8.1-13.84-17.18,1.42-35,31.79-61.3,66.71-58.98,33.6-2.21,62.47,21.79,66.74,54.51Z"/>
  <path d="M207,248.09c0,9.09-6.7,15.17-14.67,15.37-8.18.21-15.33-6.15-15.33-15.02l.04-174.19c0-8.86,7.66-14.45,15.25-14.27,8.76.21,14.71,6.61,14.71,15.75v172.35Z"/>
  <path d="M361.78,39.24c3.62,27.01-17.74,50.37-44.16,50.59-26.87.22-48.37-23.41-44.97-50.24,2.68-21.13,18.17-36.7,39.31-39.09,24.29-2.75,46.37,13.01,49.82,38.75ZM314.22,30.3c-8.9,1.84-13.42,10.34-11.5,18.21s9.53,12.54,17.59,11c8.11-1.55,13.22-9.45,11.59-17.66-1.53-7.7-9.14-13.32-17.68-11.55Z"/>
  <path d="M132.41,118.98l-56.62.09c-9.03.01-15.55-6.18-15.72-14.65s6.42-15.36,15.71-15.35l56.22.05c8.47,0,14.8,6.65,14.98,14.62s-5.74,15.23-14.57,15.25Z"/>
  <path d="M132.41,178.86l-56.62.09c-9.03.01-15.55-6.17-15.72-14.65s6.42-15.36,15.71-15.35l56.22.05c8.47,0,14.8,6.65,14.98,14.62s-5.74,15.23-14.57,15.25Z"/>
  <path d="M132.41,238.74l-56.62.09c-9.03.01-15.55-6.17-15.72-14.65-.18-8.87,6.42-15.36,15.71-15.35l56.22.05c8.47,0,14.8,6.65,14.98,14.62s-5.74,15.23-14.57,15.25Z"/>
  <path d="M309.41,238.74l-56.62.09c-9.03.01-15.55-6.17-15.72-14.66s6.42-15.36,15.71-15.35l56.22.05c8.47,0,14.8,6.65,14.98,14.62s-5.73,15.23-14.57,15.25Z"/>
</svg>