<?xml version="1.0" encoding="UTF-8"?>
<svg id="Layer_1" xmlns="http://www.w3.org/2000/svg" baseProfile="tiny" version="1.2" viewBox="0 0 384 383.18">
  <!-- Generator: Adobe Illustrator 30.5.0, SVG Export Plug-In . SVG Version: 2.1.4 Build 64)  -->
  <path d="M383.94,67.58l.06,248.24c-3.84,35.23-32.17,63.61-67.5,67.37l-134.76-.1c-37.6-4.48-67.56-34.79-67.63-73.35l-.1-58.31c-.01-8.72,7.12-15.12,15.33-14.95,7.92.17,14.63,6.49,14.64,14.94l.11,57.71c.05,23.96,19.98,44.01,44.17,44.01h121.49c23.99,0,44.16-20.04,44.16-44.12V74.11c0-24.11-20.15-44.13-44.16-44.13h-121.49c-24.2,0-44.13,20.04-44.17,44.01l-.11,57.71c-.02,8.68-7.1,15.11-15.33,14.93s-14.64-6.49-14.64-14.95v-58.32C114.88,34.82,144.16,3.96,182.68,0h132.63c36.88,3.79,64.2,31.5,68.63,67.58Z"/>
  <path d="M0,194.55v-5.99c1.93-7.31,7.77-11.98,15.86-11.98h196.75s-19.21-19.37-19.21-19.37c-6.03-6.07-5.77-15.62.2-21.35s15.07-5.75,21.06.22l44.21,44.03c6.8,6.77,6.8,16.14,0,22.91l-44.21,44.02c-6.01,5.98-15.32,5.73-21.08.2-5.68-5.45-6.38-14.98-.52-20.92l19.55-19.78H15.86c-8.09,0-13.93-4.69-15.86-11.99Z"/>
</svg>