<?xml version="1.0" encoding="UTF-8"?>
<svg id="Layer_1" xmlns="http://www.w3.org/2000/svg" baseProfile="tiny" version="1.2" viewBox="0 0 384 383.28">
  <!-- Generator: Adobe Illustrator 30.5.0, SVG Export Plug-In . SVG Version: 2.1.4 Build 102)  -->
  <path d="M383.76,283.04l.24,7.42c-1.07,13.09-6.77,25.04-15.81,35.1-10.25,11.41-20.76,21.54-33.4,30.36-21.51,15-45.96,24.33-72.23,26.66l-3.81.7h-20.25l-3.82-.73c-57.11-5.13-112.04-37.94-152.5-77.56-25.45-24.92-46.66-53.48-61.75-85.72C9.74,196.42,2.19,172.68.71,147.57l-.71-5.32.27-14.93c1.45-28.42,10.46-55.82,27.56-79.33,10.07-13.85,21.65-26.18,35.16-36.55,23.15-17.76,54.88-13.93,74.86,6.75l22.81,23.6c12.25,12.68,18.65,28.82,16.29,46.6s-13.61,34.7-30.7,42.6c-7.23,3.34-14.81,5.7-21.22,10.32-11.31,8.15-14.65,22.71-10.58,35.67,3.14,9.98,7.99,18.55,14.36,26.99,14.22,18.82,30.8,35.45,49.35,50.05,8.24,6.48,16.73,11.38,26.5,14.85,13.54,4.81,28.23,1.44,37.74-9.94,3.78-4.52,6.2-10.94,8.42-16.71,6.66-17.31,20.11-29.96,38.45-34.45,16.81-4.11,35.5-1.27,48.23,10.85l28.01,26.68c10.78,10.27,17.07,23.25,18.26,37.75ZM278.97,252.76c-2.96,7.62-6.43,14.52-10.31,21.38-2.43,4.3-5.93,7.43-9.58,10.64-16.84,14.82-39.01,19.84-60.68,13.49-26-7.63-46.87-26.15-65.99-44.88-20.86-20.43-41.17-44.69-47.91-73.44-4.71-20.11.4-40.01,14.2-55.25,3-3.32,6.03-6.45,9.94-8.78,7.29-4.33,14.72-7.92,22.57-11.05,8.19-3.26,13.82-9.67,15.61-17.38,2.02-8.68-.27-17.03-6.37-23.28l-26.97-27.65c-9.8-10.04-25.47-8.03-35.38.94s-18.38,17.4-25.94,28.1c-26.25,37.12-27.84,80.23-12.52,122.44,17.98,49.55,57.3,94.96,99.82,125.59,54.45,39.23,125.86,58.42,182.56,14.52,10.36-8.02,19.6-16.7,27.31-27.3,6.93-9.53,5.87-23.48-2.5-31.65l-26.56-25.92c-6.45-6.3-14.88-8.83-23.92-6.61-7.71,1.9-14.07,7.58-17.38,16.09Z"/>
  <path d="M384,160.97v5.24c-1.53,7.48-7.95,12.9-15.47,12.75s-13.99-6.16-14.69-13.9c-6.59-72.18-64.21-129.09-136.48-135.27-8.48-.73-13.91-9.58-12.58-17.22,1.45-8.34,8.69-13.32,17.28-12.48,22.66,2.2,44.05,8.31,64.26,18.88,36.42,19.04,65.39,49.38,82.6,86.67,8.24,17.86,12.89,36.36,15.09,55.33Z"/>
  <path d="M323.47,160.38c1.5,9.2-3.72,16.81-12.14,18.32s-16.18-4.33-17.51-13.15c-5.9-38.87-36.6-69.72-75.55-75.62-9.13-1.38-14.9-8.66-13.42-17.53s9.22-13.56,18.23-12.12c51.39,8.2,91.99,48.42,100.4,100.1Z"/>
  <path d="M261.13,158.93c3.11,8.41-.81,16.68-8.42,19.71s-16.82-.9-19.68-9.18c-3.19-9.22-9.94-15.9-19-19.3-8.11-3.05-11.47-12.31-8.22-19.82s11.99-10.94,20.1-7.7c16.43,6.57,28.95,19.35,35.21,36.28Z"/>
</svg>