<?xml version="1.0" encoding="UTF-8"?>
<svg id="Layer_1" xmlns="http://www.w3.org/2000/svg" baseProfile="tiny" version="1.2" viewBox="0 0 384 359.28">
  <!-- Generator: Adobe Illustrator 30.5.0, SVG Export Plug-In . SVG Version: 2.1.4 Build 64)  -->
  <path d="M383.88,292.7l.12,13.39c-3.71,30.29-29.64,53.2-60.86,53.2H60.86c-31.19,0-57.19-22.93-60.86-53.2l.12-13.38c1.42-8.72,4.09-16.5,8.54-24.58L140.1,29.84C150.48,11.02,170.61.01,192,0c21.41-.01,41.52,11.01,51.9,29.84l131.43,238.28c4.46,8.08,7.11,15.86,8.54,24.58ZM324.27,329.27c11.65,0,20.97-6.84,25.73-15.13,5.83-10.13,4.93-20.86-.48-30.67L218.7,46.08c-5.56-10.1-15.21-16.11-26.36-16.2-11.03-.09-21.21,5.65-26.75,15.71L34.48,283.47c-5.53,10.04-6.27,20.98-.22,31.17,5.01,8.44,14.62,14.65,25.89,14.64h264.12Z"/>
  <path d="M207.01,209.16c0,9.22-7.17,15.43-15.35,15.28s-14.69-6.9-14.68-15.7l.04-89.01c0-8.56,6.71-14.83,14.63-15.01s15.35,6.19,15.35,15l.02,89.43Z"/>
  <path d="M188.25,254.92c8.52-2.17,16.33,3.05,18.28,10.79s-2.76,16.13-10.88,18.17c-7.72,1.94-15.74-2.47-18.03-10.25s1.92-16.5,10.63-18.72Z"/>
</svg>